<?xml version="1.0" standalone="no"?>
<!DOCTYPE svg PUBLIC "-//W3C//DTD SVG 20010904//EN"
 "http://www.w3.org/TR/2001/REC-SVG-20010904/DTD/svg10.dtd">
<svg version="1.0" xmlns="http://www.w3.org/2000/svg"
 width="2133.000000pt" height="2133.000000pt" viewBox="0 0 2133.000000 2133.000000"
 preserveAspectRatio="xMidYMid meet">

<g transform="translate(0.000000,2133.000000) scale(0.100000,-0.100000)"
fill="#000000" stroke="none">
<path d="M0 14310 l0 -5650 1560 0 1560 0 1 -817 c1 -835 10 -1407 22 -1419 4
-4 31 3 60 16 28 13 1044 518 2256 1122 l2204 1098 873 0 874 0 2 -2517 3
-2518 2155 -5 2155 -5 2232 -1118 c1228 -614 2237 -1117 2243 -1117 7 0 10
379 10 1120 l0 1120 1560 0 1560 0 0 5670 0 5670 -4705 0 -4705 0 -2 2498 -3
2497 -5957 3 -5958 2 0 -5650z m7860 2420 l0 -530 -1445 0 -1445 0 0 -755 0
-755 1170 0 1170 0 0 -520 0 -520 -1170 0 -1170 0 0 -795 0 -795 1445 0 1445
0 0 -530 0 -530 -2085 0 -2085 0 0 3130 0 3130 2085 0 2085 0 0 -530z m12220
-7440 l0 -4380 -1560 0 -1560 0 -1 -552 c-1 -566 -9 -921 -22 -934 -12 -12
-126 43 -1596 776 l-1423 710 -1629 0 -1629 0 0 1880 0 1880 625 0 625 0 0
2500 0 2500 4085 0 4085 0 0 -4380z"/>
</g>
</svg>
